<svg fill="#ffffff" xmlns="http://www.w3.org/2000/svg"  viewBox="0 0 16 16" width="96px" height="96px"><path d="M 2.5 1 C 1.671875 1 1 1.671875 1 2.5 C 1 3.203125 1.488281 3.8125 2.175781 3.964844 C 1.8125 5 2.035156 6.191406 2.859375 7.015625 L 5.804688 9.960938 L 7.148438 8.617188 L 4.203125 5.675781 C 3.796875 5.269531 3.796875 4.605469 4.203125 4.203125 C 4.378906 4.023438 4.648438 3.925781 4.9375 3.925781 C 5.230469 3.925781 5.5 4.027344 5.675781 4.203125 L 5.804688 4.328125 L 7.148438 2.984375 L 7.019531 2.859375 C 6.464844 2.304688 5.703125 2.023438 4.9375 2.023438 C 4.609375 2.023438 4.28125 2.089844 3.96875 2.195313 C 3.820313 1.5 3.210938 1 2.5 1 Z M 12.5 1 C 11.789063 1 11.175781 1.496094 11.03125 2.195313 C 10.71875 2.089844 10.390625 2.023438 10.0625 2.023438 C 9.296875 2.023438 8.535156 2.304688 7.980469 2.859375 L 5.039063 5.804688 L 6.382813 7.148438 L 9.328125 4.203125 C 9.5 4.027344 9.769531 3.929688 10.0625 3.929688 C 10.351563 3.929688 10.621094 4.027344 10.796875 4.203125 C 11.203125 4.609375 11.203125 5.269531 10.796875 5.675781 L 10.671875 5.804688 L 12.015625 7.148438 L 12.140625 7.019531 C 12.964844 6.191406 13.1875 4.996094 12.824219 3.960938 C 13.511719 3.8125 14 3.203125 14 2.5 C 14 1.671875 13.328125 1 12.5 1 Z M 9.195313 5.039063 L 7.851563 6.382813 L 10.796875 9.324219 C 11.203125 9.730469 11.203125 10.390625 10.796875 10.796875 C 10.597656 10.996094 10.34375 11.101563 10.0625 11.101563 C 9.78125 11.101563 9.527344 10.996094 9.328125 10.796875 L 9.195313 10.671875 L 7.855469 12.015625 L 7.984375 12.140625 C 8.539063 12.695313 9.277344 13.003906 10.0625 13.003906 C 10.402344 13.003906 10.726563 12.933594 11.035156 12.828125 C 11.191406 13.511719 11.796875 14 12.5 14 C 13.328125 14 14 13.328125 14 12.5 C 14 11.796875 13.511719 11.191406 12.828125 11.035156 C 13.1875 10.003906 12.964844 8.804688 12.140625 7.980469 Z M 2.984375 7.851563 L 2.859375 7.980469 C 2.035156 8.804688 1.8125 10.003906 2.175781 11.035156 C 1.488281 11.1875 1 11.796875 1 12.5 C 1 13.328125 1.671875 14 2.5 14 C 3.203125 14 3.8125 13.511719 3.964844 12.824219 C 4.273438 12.933594 4.601563 13 4.9375 13 C 5.726563 13 6.464844 12.695313 7.019531 12.140625 L 9.960938 9.195313 L 8.617188 7.851563 L 5.675781 10.796875 C 5.476563 10.996094 5.222656 11.101563 4.9375 11.101563 C 4.65625 11.101563 4.402344 10.996094 4.203125 10.796875 C 3.796875 10.390625 3.796875 9.730469 4.203125 9.324219 L 4.332031 9.195313 Z"/></svg>